/* XPM */
static char *_7293ebf3c6b4d599f20ca4320d93backutuDtI63Q8dFrX8[] = {
/* columns rows colors chars-per-pixel */
"256 32 122 2 ",
"   c black",
".  c #000400",
"X  c #080408",
"o  c gray3",
"O  c #080C08",
"+  c #100C10",
"@  c #101010",
"#  c #131213",
"$  c #101410",
"%  c #131413",
"&  c #181418",
"*  c #181818",
"=  c #1B1B1B",
"-  c #1B1C1B",
";  c #211C21",
":  c #202020",
">  c #212021",
",  c #212421",
"<  c #232423",
"1  c #292829",
"2  c gray18",
"3  c #2E2F2E",
"4  c #313231",
"5  c gray21",
"6  c #393A39",
"7  c #393C39",
"8  c #3C3C3C",
"9  c #3F3F3F",
"0  c #424142",
"q  c #464546",
"w  c gray30",
"e  c #4F4E4F",
"r  c gray31",
"t  c #4F514F",
"y  c #525052",
"u  c #525152",
"i  c gray32",
"p  c #525352",
"a  c #525552",
"s  c #555355",
"d  c #555555",
"f  c #555655",
"g  c #555755",
"h  c #575557",
"j  c #575957",
"k  c #5A575A",
"l  c #5A595A",
"z  c #5A5A5A",
"x  c #5A5B5A",
"c  c #5A5D5A",
"v  c #5F5B5F",
"b  c #5D5C5D",
"n  c #5D5D5D",
"m  c #5D5E5D",
"M  c #5F5D5F",
"N  c #5F5E5F",
"B  c #5F5F5F",
"V  c #5F625F",
"C  c #626462",
"Z  c #656165",
"A  c #656265",
"S  c #656365",
"D  c #6B676B",
"F  c #6B6A6B",
"G  c #6B6D6B",
"H  c gray43",
"J  c gray45",
"K  c #737573",
"L  c #777777",
"P  c #7B797B",
"I  c #7B7B7B",
"U  c #7B7D7B",
"Y  c #7F7D7F",
"T  c #7E7E7E",
"R  c gray50",
"E  c #7F817F",
"W  c #838183",
"Q  c #838383",
"!  c #848284",
"~  c #878987",
"^  c #8B8B8B",
"/  c #8C8A8C",
"(  c #9F9C9F",
")  c #9F9F9F",
"_  c #A4A2A4",
"`  c #A4A4A4",
"'  c #A4A7A4",
"]  c #A5A6A5",
"[  c #A7A6A7",
"{  c #A7AAA7",
"}  c #AAA7AA",
"|  c #AAA8AA",
" . c #AAAAAA",
".. c #AAABAA",
"X. c #ACAAAC",
"o. c #ACABAC",
"O. c #AFABAF",
"+. c #ACACAC",
"@. c #ACAEAC",
"#. c #ADAEAD",
"$. c #AFAEAF",
"%. c #AFAFAF",
"&. c #AFB0AF",
"*. c #B2AEB2",
"=. c #B2AFB2",
"-. c #B2B0B2",
";. c #B5B4B5",
":. c #B5B6B5",
">. c #C6C3C6",
",. c #C5C5C5",
"<. c #C6C7C6",
"1. c #D6DBD6",
"2. c #E7E7E7",
"3. c #E7EBE7",
"4. c #EFEBEF",
"5. c #EFEFEF",
"6. c #EFF3EF",
"7. c #F7F3F7",
"8. c gray97",
"9. c #F7FBF7",
"0. c #FFFBFF",
"q. c white",
/* pixels */
"                                                                                                                                                                                                                                                                                                                                                                                                                                                                                                                                ",
"                                                                                                                                                                                                                                                                                                                                                                                                                                                                                                                                ",
"                                                                                                                                                                                                                                                                                                                                                                                                                                                                                                                                ",
"                                                                                                                                                                                                                                                                                                                                                                                                                                                                                                                                ",
"                                                                                                                                                                                                                                                                                                                                                                                                                                                                                                                                ",
"                                                                                                                                                                                                                                                                                                                                                                                                                                                                                                                                ",
"              g 0.0.0.0.` i                                          .q.8                               g g q.q.q.q. .                                  R q.q.q.8.I                                             0.0.s                           g q.q.q.q.q.q.q.0.0.0.s                             _ 7.q.q. .                          R q.q.q.q.q.q.q.q.q.q.q.q.q.g                           0.0.0.0.                                    g q.0.0.0.R                                                                         ",
"          g q.q.0.0.0.0.8.8.`                                     g q.q.8                             R q.q.q.q.q.q.q.q.,.                          i 8.q.q.q.q.8.8.8.I                                       ,.0.0.s                           g q.q.q.q.q.q.q.0.0.0.s                         _ 7.7.7.q.q.q.q.,                       R q.q.q.q.q.q.q.q.q.q.q.q.q.g                       8.8.0.0.0.0.9.9.                            g q.q.q.0.0.0.0.0.s                                                                     ",
"        @ 8.8.8.q.q.q.q.0.0.0.x                                 i q.q.q.8                           R q.q.q.q.q.q.q.q.q.q.+.                      & q.q.q.q.q.q.q.q.q.q.s                                     5.q.q.g                           +.q.q.q.q.q.q.q.0.0.0.s                       k q.q.q.q.q.q.q.q.9.                      R q.q.q.q.q.q.q.9.9.9.9.0.0.s                     8.8.8.0.0.0.0.q.q.q.x                       i q.q.q.q.q.q.q.q.q.q.x o                                                                 ",
"        Q 8.8.8.g       o.0.0.0.                              x q.q.q.q.8                           q.q.q.Q         R q.q.q.x                   & -.q.q. .g     O +.q.q.6.X                                 5.5.q.q.g                           +.q.+.o                                     k q.q.q.g       g q.9.9.                                        B 9.0.s                      .8.8. .          q.q.q.,                     7.q.q. .g       R q.q.q.o                                                                 ",
"        8.8.8.@           o.0.0.i                           +.q.q.q.q.q.8                         R q.q.Q             R q.q.+.                  & q.q.-.          O +.q.6.X                               5.5.5.q.q.g                           q.q.x o                                     o.q.q.g           g 9.9.`                                       9.9.}                       8.8.8.              q.q.G                   i 7.q. .            x q.q.x                                                                 ",
"      2 8.8.Q               0.0.U                         q.q.q.,.^ q.q.8                         R q.q.o               +.q.q.                  A q.q.A           O c q.6.X                             U 5.5.U q.q.g                           q.q.x o                                     q.q.                9.9.`                                     9.9.9.                        8.8. .              q.q.G                   _ 7.q.g             o +.q.+.                                                                ",
"      0 q.q.g               o.q.o.X                     o.q.q.k   R 0.0.8                                             q_ +.q.q.                                  O O o.0.3.                             q.q.+ B q.q.g                           0.0.+ +                                   i 8.8.                                                        c q.q.c                         +.q.q.              8.8.e                    .q.8.                 .q.q.*                                                               ",
"      ! q.q                 o.q.q.X                     o.k X     R 0.0.8                                           q q q.q.q.                                  x o.0.0.K                             8.q.B + B q.q.g                          .0.o.+ v q.q.q. .x o                       ` 8.8.                                                        q.q.+.                          x q.q.+.          8.8.8.                     .q.8.                 .q.q.5                                                               ",
"      ! q.q                 k q.q.X                     X X       R 0.0.8                                           q q q.q.B                             s 0.0.0.0.0.x                             ` 8.+.+   B q.q.g                          .0.0.0.0.q.q.q.q.0.o.o                     ` 8.8.  o g 5.8.8.8.I .                                      .q.q.                              x q.q.q.q.q.q.8.8.                         .q.8.i                .q.q.i                                                               ",
"      >.q.q                 k q.q.X                     X         R 0.0.8                                         q q ,.q.q.+                             s 0.0.0.0.0.x                           g 8.8.+     B q.q.g                          .0.0.0.0.q.q.q.q.0.0.0.o                   ` 8.8.o 5.5.5.8.8.8.8.1..                                   q.q.+.                                x q.q.q.q.q.8.8.                        g q.8.`             g q.q.q.i                                                               ",
"      ` q.q.                U 9.q.o                               R 0.0.8                                       X X o.q.q.g                               J 2.J q.q.q.q.}                         q.q.c       B q.q.g                                         e *.0.0.A                   8.8.` 5.5.5.5.q.q.q.q.8.8.O                               { 9.q.                                o.0.0.0.0.0.0.0.0.0.s                       2.q.q.^ * % % % ~ q.q.q.q.B                                                               ",
"      ` q.q.                U 9.q.o                               R 0.0.8                                     q X k q.q. .                                      + + +.q.0.s                     +.q.+.O       B q.q.g                                           & 0.0.0.-                 8.8.8.5.5.           .8.8.E                               9.9.                                o.0.0.o.s       s 0.0.0.s                     J q.q.q.q.q.q.q.q.q.&.q.q.B                                                               ",
"      ` q.q.                U 9.q.o                               R 0.0.8                                    q q o.q.q.o.                                         + + q.0.0.                  ( q.q.O O       B q.q.g                                             A 0.0.a                 8.8.8.5.              8.8.8.                            j 9.9.                              8 0.0.o.+           s 0.0.}                       ^ q.q.q.q.q.q.q.V V q.q.2                                                               ",
"      ` q.q.                U 9.q.o                               R 0.0.8                                   q _ q.q.o.X                                             + B 0.0.s               e 4.q.c O O       B q.q.g                                             A 0.0.a                 ` 8.8.g               E 8.8.                            9.9.9.                              R 0.0.+               } 0.0.                      * * ^ q.q.q.~ % % V q.q.2                 q.q.q.q.q.q.q.q.                              ",
"      C 0.0.                 .q.q.                                R 0.0.8                                 @ +.q.q.R                                                   s q.q.g               R q.q.q.q.q.q.q.q.q.q.q.q.q.8.i                                       g 0.0.a                 +.q.q.i               G q.q.                          : q.q.F                               / q.q.o               x q.6.t                                       ` 8.8.@                 q.q.q.q.q.q.q.q.                              ",
"      C 0.0.                 .q. .                                R 0.0.8                               B q.q.q.R                               . . .                 s q.q.g               R q.q.q.q.q.q.q.q.q.q.q.q.q.8.i                                       g 0.0.a                 x q.q.i               G q.q.                          F q.q.                                / q.q.o               x q.6.t                                       8.8.8.                  q.q.q.q.q.q.q.q.                              ",
"      4 0.0.B             . q.q. .                                R 0.0.8                             g q.q.q.B                                  .0.0.                } q.q.                R q.q.q.q.q.q.q.q.q.q.q.q.q.8.i                  .q.q..                .0.0.-                 x q.q.i               G q.q.                          :.q.q.                                / q.q.o               +.q.6.                  g q.5.L             i 8.8.`                                                                 ",
"        0.0.0.@         .  .q.q.g                                 R 0.0.8                           g q.q.q.@                                   g 0.0. .            s 0.q. .                                  g q.q.g                         q.q.E .           . 0.0. .                  o q.q.8.            : q.q.:.                          q.q.:.                                q q.q.Q o           o q.q.6.                    q.5.5.            ` 8.8.i                                                                 ",
"        B q.q.q.B @ @ @ ` 9.9.9.@                                 R 0.0.8                         X 9.9.q.@                                     X 9.9.9.Q X X X o Q q.q.8.i                                   B q.q.g                         2.q.q.D           5.5.5.e                     g q.0.0.s       s 0.q.q.g                           q.q.x                                   8.8.8.` s       x 0.0.0.H                     +.0.0.*.* . . g  .7.7._                                                                   ",
"        @ q.q.q.q.q.q.q.9.9.9.i                                   R 0.0.8                       X R 9.9.q.q.q.q.q.q.q.q.q.q.q.g                 X R 9.9.q.q.q.q.q.q.q.q.`                                     B q.q.g                         J q.q.q.q.q.q.q.q.5.5.(                          .0.0.0.0.0.0.0.0.q.                              q.q.x                                   i 8.8.8.0.0.0.0.0.0.0.                        6 0.0.0.0.q.q.q.q.7.7.                                                                    ",
"          B q.q.q.q.q.q.9.9.`                                     R 0.0.8                       X 9.9.9.q.q.q.q.q.q.q.q.q.q.q.g                   X R 9.q.q.q.q.q.q.q.Q                                       B q.q.g                           D q.q.q.q.q.q.q.5.(                             } 0.0.0.0.0.0.0.                                q.q.x                                     i 8.8.0.0.0.0.0.0.o                           A 0.0.0.q.q.q.q.7.i                                                                     ",
"            @ B q.q.q.q.` i                                       R 0.0.8                       X 9.9.9.q.q.q.q.q.q.q.q.q.q.q.g                     X X Q q.q.q.q.Q o                                         B q.q.g                             ; D q.q.q.q.R e                                 s } 0.0.0.} s                                 q.q.o                                         i 0.0.0.0.o.x                             * * *.0.q.q. .g                                                                         ",
"                                                                                                                                                                                                                                                                                                                                                                                                                                                                                                                                ",
"                                                                                                                                                                                                                                                                                                                                                                                                                                                                                                                                ",
"                                                                                                                                                                                                                                                                                                                                                                                                                                                                                                                                ",
"                                                                                                                                                                                                                                                                                                                                                                                                                                                                                                                                "
};
