/* XPM */
static char *_9f344df5be84598caf0904897cfe71eomqlsRWYw187VfH5[] = {
/* columns rows colors chars-per-pixel */
"12 13 86 1 ",
"  c None",
". c black",
"X c #010000",
"o c #000100",
"O c #000001",
"+ c #010001",
"@ c #010101",
"# c #020100",
"$ c #010002",
"% c #000102",
"& c #010103",
"* c #020003",
"= c #000004",
"- c #2F3028",
"; c #2F302A",
": c #303028",
"> c #31302B",
", c #2E6C1D",
"< c #2D721F",
"1 c #31701F",
"2 c #2E7121",
"3 c #5A4F39",
"4 c #575235",
"5 c #5B5235",
"6 c #585039",
"7 c #59513A",
"8 c #58523A",
"9 c #4F932F",
"0 c #53982E",
"q c #52992F",
"w c #509930",
"e c #529B32",
"r c #8A8206",
"t c #8B8307",
"y c #8A8108",
"u c #8B8108",
"i c #898309",
"p c #8B8209",
"a c #8A810A",
"s c #B0A204",
"d c #B0A305",
"f c #B2A205",
"g c #B0A106",
"h c #B1A207",
"j c #B2A109",
"k c #B1A209",
"l c #B2A308",
"z c #B3A20A",
"x c #B1A30C",
"c c #D3A427",
"v c #DBCB06",
"b c #DACC07",
"n c #DCCC07",
"m c #DBCA08",
"M c #DCCA08",
"N c #DCCB09",
"B c #DDCB09",
"V c #D8CC08",
"C c #FAEA0E",
"Z c #FCEA0E",
"A c #FDEB0F",
"S c #FAEC0D",
"D c #F9EB10",
"F c #FAEA10",
"G c #FBEB11",
"H c #FAEB12",
"J c #FBEB12",
"K c #FDEA11",
"L c #FDEA12",
"P c #FAEC11",
"I c #FAC231",
"U c #B2A169",
"Y c #B2A36A",
"T c #DABB82",
"R c #DBBB82",
"E c #DCB981",
"W c #DDBA84",
"Q c #FADB9A",
"! c #FADB9B",
"~ c #FCDA9A",
"^ c #FDDB9B",
"/ c #D3DCD9",
"( c #D3DCDB",
") c #D3DBDD",
"_ c #D4DCDF",
"` c #FBFBFB",
/* pixels */
"  ........  ",
" .,eqq9eq1= ",
".<xffzffff2.",
".fZPHHHHmNa.",
".PNzSKHKnVf.",
".ZzCHKHVNNN.",
".n56zfmv63m.",
".a.>aata>.a.",
".a/.6UU4./t.",
".b`-)WE_-`N.",
".P.R!!~~R.Z.",
" .c......I. ",
"  .      .  "
};
